<svg id="_24" data-name="24" xmlns="http://www.w3.org/2000/svg" width="24" height="24" viewBox="0 0 24 24">
  <rect id="Rectangle_504" data-name="Rectangle 504" width="24" height="24" fill="#10d5dd" opacity="0.004"/>
  <path id="bar-chart-line" d="M16.5,2.5A1.5,1.5,0,0,1,18,1h3a1.5,1.5,0,0,1,1.5,1.5v18h.75a.75.75,0,0,1,0,1.5H.75a.75.75,0,0,1,0-1.5H1.5V16A1.5,1.5,0,0,1,3,14.5H6A1.5,1.5,0,0,1,7.5,16v4.5H9V10a1.5,1.5,0,0,1,1.5-1.5h3A1.5,1.5,0,0,1,15,10V20.5h1.5Zm1.5,18h3V2.5H18Zm-4.5,0V10h-3V20.5ZM6,20.5V16H3v4.5Z" transform="translate(0 1)" />
</svg>
