<svg xmlns="http://www.w3.org/2000/svg" width="24" height="24" viewBox="0 0 24 24">
  <g id="download" transform="translate(-35 -569)">
    <rect id="Rectangle_638" data-name="Rectangle 638" width="24" height="24" transform="translate(35 569)" fill="rgba(29,236,253,0)"/>
    <path id="file-earmark-arrow-down" d="M-5685,500a3,3,0,0,1-3-3V479a3,3,0,0,1,3-3h8.25l6.751,6.749V497a3,3,0,0,1-3,3Zm-1.5-21v18a1.5,1.5,0,0,0,1.5,1.5h12a1.5,1.5,0,0,0,1.5-1.5V482.749h-3a2.249,2.249,0,0,1-2.25-2.248v-3H-5685A1.5,1.5,0,0,0-5686.5,479Zm6.967,16.281-3-3a.755.755,0,0,1,0-1.062.751.751,0,0,1,1.063,0l1.719,1.719v-5.689a.751.751,0,0,1,.75-.749.75.75,0,0,1,.751.749v5.689l1.718-1.719a.75.75,0,0,1,1.062,0,.751.751,0,0,1,0,1.062l-3,3a.744.744,0,0,1-.53.221A.751.751,0,0,1-5679.532,495.281Z" transform="translate(5726.002 93)"/>
  </g>
</svg>
