<svg id="_24" data-name="24" xmlns="http://www.w3.org/2000/svg" width="24" height="24" viewBox="0 0 24 24">
  <rect id="Rectangle_508" data-name="Rectangle 508" width="24" height="24" fill="#28c4c4" opacity="0"/>
  <path id="question-circle" d="M0,12A12,12,0,1,1,12,24,12,12,0,0,1,0,12Zm1.5,0A10.5,10.5,0,1,0,12,1.5,10.5,10.5,0,0,0,1.5,12Zm8.719,5.325a1.41,1.41,0,0,1,1.513-1.41,1.407,1.407,0,1,1,0,2.8A1.412,1.412,0,0,1,10.22,17.322Zm.826-2.865a.377.377,0,0,1-.375-.37l0-.325a3.415,3.415,0,0,1,1.752-2.982c.885-.665,1.447-1.1,1.447-2.056A1.743,1.743,0,0,0,11.9,6.972a1.876,1.876,0,0,0-2.016,1.7.417.417,0,0,1-.4.375H8.245a.364.364,0,0,1-.262-.109.35.35,0,0,1-.1-.261c.143-2.545,2.225-3.43,4.124-3.43,2.1,0,4.012,1.094,4.012,3.361a3.658,3.658,0,0,1-1.868,3.084c-1.1.838-1.515,1.154-1.515,2.229v.159a.376.376,0,0,1-.375.375Z" />
</svg>
