<svg xmlns="http://www.w3.org/2000/svg" width="16" height="16" viewBox="0 0 16 16">
  <g id="pause-circle" transform="translate(-92 -529)">
    <rect id="Rectangle_669" data-name="Rectangle 669" width="16" height="16" transform="translate(92 529)" fill="rgba(255,255,255,0)"/>
    <path id="pause-circle-fill" d="M16,8A8,8,0,1,1,8,0a8,8,0,0,1,8,8ZM6.25,5A1.25,1.25,0,0,0,5,6.25v3.5a1.25,1.25,0,0,0,2.5,0V6.25A1.25,1.25,0,0,0,6.25,5Zm3.5,0A1.25,1.25,0,0,0,8.5,6.25v3.5a1.25,1.25,0,0,0,2.5,0V6.25A1.25,1.25,0,0,0,9.75,5Z" transform="translate(92 529)" fill="#b0b6ba"/>
  </g>
</svg>
