<svg id="_24" data-name="24" xmlns="http://www.w3.org/2000/svg" width="24" height="24" viewBox="0 0 24 24">
  <rect id="Rectangle_503" data-name="Rectangle 503" width="24" height="24" transform="translate(0 0)" fill="#fff" opacity="0"/>
  <path id="Union_35" data-name="Union 35" d="M-6664,314a3,3,0,0,1-3-3V293a3,3,0,0,1,3-3h8.252l6.75,6.749V311a3,3,0,0,1-3,3Zm-1.5-21v18a1.5,1.5,0,0,0,1.5,1.5h12a1.5,1.5,0,0,0,1.5-1.5V296.749h-3a2.249,2.249,0,0,1-2.25-2.249v-3H-6664A1.5,1.5,0,0,0-6665.5,293Zm11.249,18a.751.751,0,0,1-.75-.75v-9a.748.748,0,0,1,.75-.748h1.5a.749.749,0,0,1,.751.748v9a.751.751,0,0,1-.751.75Zm-4.5,0a.751.751,0,0,1-.75-.75v-6a.751.751,0,0,1,.75-.75h1.5a.751.751,0,0,1,.75.75v6a.751.751,0,0,1-.75.75Zm-4.5,0a.751.751,0,0,1-.751-.75v-3a.751.751,0,0,1,.751-.75h1.5a.751.751,0,0,1,.751.75v3a.751.751,0,0,1-.751.75Z" transform="translate(6670 -290)" />
</svg>
