<svg id="schedule_report" data-name="schedule report" xmlns="http://www.w3.org/2000/svg" width="24" height="24" viewBox="0 0 24 24">
  <rect id="Rectangle_664" data-name="Rectangle 664" width="24" height="24" transform="translate(0 0)" fill="rgba(255,255,255,0)"/>
  <g id="_24" transform="translate(0 0)">
    <path id="Union_40" data-name="Union 40" d="M-1687.58-3321.08a2.713,2.713,0,0,1-2.71-2.713v-6.835a7.826,7.826,0,0,0,1.5.54v6.006a1.5,1.5,0,0,0,1.5,1.5H-1674a1.5,1.5,0,0,0,1.5-1.5v-10.85a1.209,1.209,0,0,0-1.21-1.211h-4.95a8.3,8.3,0,0,0,.23-1.5h5.93v-1.711a1.5,1.5,0,0,0-1.5-1.5h-.5v.97a.755.755,0,0,1-.75.75h-1.76a.756.756,0,0,1-.751-.75v-.97h-1.09a7.829,7.829,0,0,0-.69-1.5h1.78v-.9a.757.757,0,0,1,.751-.752h1.76a.756.756,0,0,1,.75.752v.9h.5a3.011,3.011,0,0,1,3,3v15.563a2.713,2.713,0,0,1-2.71,2.713Zm9.566-4.755v-2.779h2.26v2.779Zm-3.774,0v-2.779h2.27v2.779Zm-3.764,0v-2.779h2.26v2.779Zm.96-4.273a8.376,8.376,0,0,0,1.3-.47v.47Zm6.577,0v-2.78h2.26v2.78Zm-3.774,0v-1.36a8.425,8.425,0,0,0,1.5-1.419h.77v2.779Zm-11.792-8.071a6.79,6.79,0,0,1,1.319-4.019h-1.99a.755.755,0,0,1-.75-.751.755.755,0,0,1,.75-.75h3.74a.756.756,0,0,1,.75.75v3.74a.756.756,0,0,1-.75.75.756.756,0,0,1-.751-.75v-1.8a5.3,5.3,0,0,0-.82,2.83,5.333,5.333,0,0,0,5.33,5.32,5.33,5.33,0,0,0,5.32-5.32,5.324,5.324,0,0,0-5.32-5.32.756.756,0,0,1-.75-.75.756.756,0,0,1,.75-.751,6.829,6.829,0,0,1,6.82,6.82h-.01a6.829,6.829,0,0,1-6.82,6.82A6.828,6.828,0,0,1-1693.58-3338.18Zm8.057,1.88h.01l-1.69-1.28a.753.753,0,0,1-.3-.6v-3.45a.755.755,0,0,1,.75-.75.755.755,0,0,1,.751.75v3.07l1.39,1.06a.748.748,0,0,1,.14,1.049.738.738,0,0,1-.6.3A.782.782,0,0,1-1685.523-3336.3Z" transform="translate(1695 3345)" />
  </g>
</svg>
