<svg xmlns="http://www.w3.org/2000/svg" width="24" height="24" viewBox="0 0 24 24">
  <g id="schedule_report" data-name="schedule report" transform="translate(-1308 -441)">
    <rect id="Rectangle_668" data-name="Rectangle 668" width="24" height="24" transform="translate(1308 441)" fill="rgba(255,255,255,0)"/>
    <path id="Union_41" data-name="Union 41" d="M-2444.65-3716.39a2.21,2.21,0,0,1-2.21-2.209v-9.241a7.243,7.243,0,0,0,1.48.73v8.52a.739.739,0,0,0,.741.741h13.28a.738.738,0,0,0,.74-.741v-17.71a.737.737,0,0,0-.74-.74h-.74a.739.739,0,0,1-.74-.74.739.739,0,0,1,.74-.74h.74a2.21,2.21,0,0,1,2.209,2.209v17.711a2.21,2.21,0,0,1-2.209,2.209Zm10.4-2.61a.755.755,0,0,1-.75-.75v-9a.748.748,0,0,1,.75-.75h1.5a.755.755,0,0,1,.75.75v9a.755.755,0,0,1-.75.75Zm-4.5,0a.749.749,0,0,1-.75-.75v-6a.75.75,0,0,1,.75-.75h1.5a.75.75,0,0,1,.75.75v6a.75.75,0,0,1-.75.75Zm-4.5,0a.756.756,0,0,1-.75-.75v-3a.757.757,0,0,1,.75-.75h1.5a.756.756,0,0,1,.75.75v3a.755.755,0,0,1-.75.75Zm-5.58-14.679a5.617,5.617,0,0,1,1.091-3.321h-1.64a.623.623,0,0,1-.621-.62.624.624,0,0,1,.621-.62h3.069a.624.624,0,0,1,.621.62v3.08a.624.624,0,0,1-.621.621.623.623,0,0,1-.619-.621v-1.48a4.45,4.45,0,0,0-.67,2.341,4.4,4.4,0,0,0,4.39,4.39,4.4,4.4,0,0,0,4.39-4.39,4.4,4.4,0,0,0-4.39-4.391.623.623,0,0,1-.62-.62.624.624,0,0,1,.62-.62,5.633,5.633,0,0,1,5.63,5.62l-.01.01a5.624,5.624,0,0,1-5.62,5.619A5.625,5.625,0,0,1-2448.83-3733.679Zm6.24,1.6h-.01l-1.24-.95a.546.546,0,0,1-.22-.44v-2.55a.556.556,0,0,1,.55-.55.549.549,0,0,1,.55.55v2.271l1.031.78a.551.551,0,0,1,.11.78.559.559,0,0,1-.44.22A.527.527,0,0,1-2442.59-3732.08Zm5.68-4.23h-.01a6.829,6.829,0,0,0-3.75-3.529.73.73,0,0,1,.449-.17h4.43a.738.738,0,0,1,.74.74.737.737,0,0,0,.74.74.738.738,0,0,1,.74.74v.74a.737.737,0,0,1-.74.74Z" transform="translate(3760 4181.01)" />
  </g>
</svg>
