<svg id="outline" xmlns="http://www.w3.org/2000/svg" width="24" height="24" viewBox="0 0 24 24">
  <rect id="Rectangle_509" data-name="Rectangle 509" width="24" height="24" transform="translate(0 0)" fill="#25d5d5" opacity="0"/>
  <path id="Union_37" data-name="Union 37" d="M9.306,21.984l-.14-.477a1.312,1.312,0,0,0-1.885-.781l-.436.24a2.811,2.811,0,0,1-3.814-3.811l.243-.438a1.311,1.311,0,0,0-.781-1.882l-.479-.139a2.81,2.81,0,0,1,0-5.389l.479-.142a1.311,1.311,0,0,0,.781-1.882l-.24-.438A2.81,2.81,0,0,1,6.846,3.032l.436.24a1.313,1.313,0,0,0,1.885-.779l.14-.48a2.81,2.81,0,0,1,5.389,0l.142.48a1.31,1.31,0,0,0,1.883.779l.438-.237a2.808,2.808,0,0,1,3.811,3.809l-.239.438a1.311,1.311,0,0,0,.778,1.882l.479.142a2.81,2.81,0,0,1,0,5.389l-.479.139a1.311,1.311,0,0,0-.778,1.882l.236.438a2.808,2.808,0,0,1-3.808,3.811l-.438-.24a1.309,1.309,0,0,0-1.883.781l-.142.477a2.809,2.809,0,0,1-5.389,0Zm-.322-2.7a2.8,2.8,0,0,1,1.619,1.8l.142.48a1.31,1.31,0,0,0,2.512,0l.142-.477a2.808,2.808,0,0,1,4.038-1.673l.438.237a1.31,1.31,0,0,0,1.777-1.777l-.239-.436a2.811,2.811,0,0,1,1.673-4.041l.478-.139a1.309,1.309,0,0,0,0-2.512l-.478-.142a2.808,2.808,0,0,1-1.673-4.038l.236-.438a1.309,1.309,0,0,0-1.774-1.777l-.437.24A2.808,2.808,0,0,1,13.4,2.916l-.142-.477a1.309,1.309,0,0,0-2.512,0l-.142.477A2.808,2.808,0,0,1,6.564,4.589l-.436-.24A1.311,1.311,0,0,0,4.35,6.126l.24.438A2.809,2.809,0,0,1,2.919,10.6l-.479.139a1.309,1.309,0,0,0,0,2.512l.479.142A2.807,2.807,0,0,1,4.59,17.435l-.237.436A1.311,1.311,0,0,0,6.129,19.65l.436-.24a2.805,2.805,0,0,1,2.419-.129ZM7.132,12A4.868,4.868,0,1,1,12,16.868,4.869,4.869,0,0,1,7.132,12Zm1.5,0A3.37,3.37,0,1,0,12,8.63,3.371,3.371,0,0,0,8.63,12Z" transform="translate(0 0)"/>
</svg>
