<svg xmlns="http://www.w3.org/2000/svg" width="16" height="16" viewBox="0 0 16 16">
  <g id="warning" transform="translate(-316 -401)">
    <rect id="Rectangle_325" data-name="Rectangle 325" width="16" height="16" transform="translate(316 401)" fill="rgba(255,255,255,0)"/>
    <path id="exclamation-square-fill" d="M1.75,0A1.75,1.75,0,0,0,0,1.75v10.5A1.75,1.75,0,0,0,1.75,14h10.5A1.75,1.75,0,0,0,14,12.25V1.75A1.75,1.75,0,0,0,12.25,0ZM7,3.5a.791.791,0,0,1,.787.871L7.481,7.439a.483.483,0,0,1-.963,0L6.213,4.371A.792.792,0,0,1,7,3.5ZM7,8.75a.875.875,0,1,1-.875.875A.875.875,0,0,1,7,8.75Z" transform="translate(317 402)" fill="#ffc107"/>
  </g>
</svg>
